<svg viewBox="0 0 123 123" xmlns="http://www.w3.org/2000/svg">
<path d="M18.43 0H104.45C114.63 0 122.88 8.25 122.88 18.43V104.45C122.88 114.63 114.63 122.88 104.45 122.88H18.43C8.25 122.88 0 114.63 0 104.45V18.43C0 8.25 8.25 0 18.43 0Z" fill="black"/>
<path d="M47.7602 86.16V47.76C47.7602 46.32 48.5602 45.44 50.1602 45.12L83.2802 38.4C85.0402 38.08 86.0002 38.88 86.1602 40.8V70.08C86.1602 72.48 82.5602 74.08 75.3602 74.88C61.6802 77.04 63.8402 100.08 82.5602 93.84C89.7602 91.2 90.9602 84.24 90.9602 77.28V21.12C90.9602 21.12 90.9602 16.32 86.8802 17.52L46.0802 25.92C46.0802 25.92 42.9602 26.4 42.9602 30.24V78.96C42.9602 81.36 39.3602 82.96 32.1602 83.76C18.4802 85.92 20.6402 108.96 39.3602 102.72C46.5602 100.08 47.7602 93.12 47.7602 86.16Z" fill="white"/>
</svg>
