<svg xmlns="http://www.w3.org/2000/svg" viewBox="0 0 80 80"><g><path d="M30.3,40.4l-7.2,5.6l6,1.9l3.3-6.1c0.9,0.6,1.5,0.9,1.5,0.9c0.2-1.1,1.3-2.6,1.3-2.6c-4.4-1.8-7.9-5.3-8-11.3c-0.1-6,4.5-9.7,4.5-9.7s-1.7,0.8-3.5,2.7L0.5,16.1l0.1,7.4l25.3,1.9c-0.4,0.8-0.8,1.8-1,2.8l-23-0.4l5.6,8.2l17.1-4.6c0.1,1.3,0.5,2.4,1,3.5L10.5,39l7.3,4.9l9.7-6.2C28.4,38.8,29.4,39.7,30.3,40.4z"></path><path d="M79.5,16l-27.8,5.7c-1.8-1.9-3.5-2.7-3.5-2.7s4.7,3.7,4.5,9.7c-0.1,6-3.6,9.6-8,11.3c0,0,1.1,1.5,1.3,2.6c0,0,0.6-0.3,1.5-0.9l3.3,6.1l6-1.9l-7.2-5.6c0.9-0.8,1.9-1.7,2.8-2.8l9.7,6.2l7.3-4.9l-15.1-4.2c0.5-1.1,0.9-2.3,1-3.5l17.1,4.6l5.6-8.2l-23,0.4c-0.2-1-0.6-2-1-2.8l25.3-1.9L79.5,16z"></path><path d="M33.2,54.1c-0.2-0.2-0.4-1.1-0.5-1.7c-0.1-0.6-0.8-0.6-0.8-0.6L23.5,52c-0.1,0.2-1.1,0.9-1.4,1.2c-0.3,0.3-0.2,0.6-0.2,0.9c0,0.3-0.2,1.2-0.2,1.2c-0.2,0.3,0.6,0.6,0.9,0.4c0.3-0.2,1-0.5,1.6-0.5c0.6,0,1.2-0.1,1.8-0.3c0.6-0.2,2-0.2,2.4-0.4c0.4-0.1,1.6-0.2,2.3-0.4c0.7-0.2,0.4,0.7,0.4,1c-0.1,0.3-0.6,1.1-0.7,1.5c-0.2,0.3,0.1,0.5,0.2,0.4c0.2-0.1,2.1-1.9,2.4-2C33.4,54.9,33.3,54.4,33.2,54.1z"></path><path d="M58.1,54.1c0-0.3,0.1-0.6-0.2-0.9c-0.3-0.3-1.3-1-1.4-1.2l-8.4-0.1c0,0-0.7,0-0.8,0.6c-0.1,0.6-0.3,1.4-0.5,1.7c-0.2,0.2-0.2,0.8,0.2,0.9c0.4,0.1,2.3,2,2.4,2c0.2,0.1,0.4-0.1,0.3-0.4c-0.2-0.3-0.7-1.2-0.7-1.5c-0.1-0.3-0.4-1.2,0.4-1c0.7,0.2,1.9,0.3,2.3,0.4c0.4,0.1,1.8,0.2,2.4,0.4c0.6,0.2,1.2,0.3,1.8,0.3c0.6,0,1.3,0.4,1.6,0.5c0.3,0.2,1.1-0.1,0.9-0.4C58.4,55.3,58.1,54.5,58.1,54.1z"></path><path d="M46,53.8c0.3-0.3-0.2-0.3-0.2-0.3c-0.7,0.4-1.2-0.2-1.2-0.2c-1.7-2.1-0.3-4.7-0.1-4.9c0.2-0.3,0.8,0.1,0.8-0.1c0-0.2,0-0.2-0.3-0.7c-0.3-0.6,0.7-2.3,0.3-4.9c-0.4-2.6-3.1-3.2-3.7-3.4c-0.3-0.1-0.6-0.2-0.6-0.4V34h9.1l-10-16.7L30.1,34H39v4.9c0,0.1-0.4,0.3-0.7,0.4c-0.6,0.1-3.3,0.8-3.7,3.4c-0.4,2.6,0.7,4.3,0.3,4.9c-0.3,0.6-0.3,0.6-0.3,0.7c0,0.2,0.6-0.2,0.8,0.1c0.2,0.3,1.7,2.8-0.1,4.9c0,0-0.5,0.6-1.2,0.2c0,0-0.6-0.2-0.2,0.3c0.4,0.5,0.1,0.9-0.1,1.4c-0.3,0.6-2.4,4.5,0.7,7.2c0,0,1.7,1.7,5.4,1.7h0.2c3.6,0,5.4-1.7,5.4-1.7c3-2.7,0.9-6.6,0.7-7.2C45.9,54.6,45.5,54.2,46,53.8z M35.5,25.7l9.2,0L40.2,34h-0.4L35.5,25.7z"></path> </g> </svg>